<svg width="256" height="256" viewBox="0 0 256 256" fill="none" xmlns="http://www.w3.org/2000/svg">
<rect width="256" height="256" rx="24" fill="url(#paint0_linear_48_2)"/>
<path d="M188.576 93.4016L188.651 93.3291L164.832 70.1909C163.778 69.1792 162.356 68.6119 160.875 68.6119C159.393 68.6119 157.971 69.1792 156.917 70.1909C154.752 72.2944 154.752 75.776 156.917 77.8795L168.715 89.3397C160.875 92.2411 155.573 100.002 156.917 108.996C158.112 116.975 165.131 123.43 173.344 124.301C176.853 124.663 179.915 124.083 182.827 122.85V175.147C182.827 179.136 179.467 182.4 175.36 182.4C171.253 182.4 167.893 179.136 167.893 175.147V142.507C167.893 134.528 161.173 128 152.96 128H145.493V77.2267C145.493 69.248 138.773 62.72 130.56 62.72H85.76C77.5467 62.72 70.8267 69.248 70.8267 77.2267V186.027C70.8267 190.016 74.1867 193.28 78.2933 193.28H138.027C142.133 193.28 145.493 190.016 145.493 186.027V138.88H156.693V174.131C156.693 183.633 163.712 192.265 173.419 193.207C176.022 193.472 178.653 193.202 181.142 192.414C183.63 191.627 185.921 190.339 187.864 188.636C189.807 186.933 191.36 184.852 192.422 182.528C193.484 180.204 194.03 177.689 194.027 175.147V106.24C194.027 101.235 191.936 96.6656 188.576 93.4016ZM175.36 113.493C171.253 113.493 167.893 110.229 167.893 106.24C167.893 102.251 171.253 98.9867 175.36 98.9867C179.467 98.9867 182.827 102.251 182.827 106.24C182.827 110.229 179.467 113.493 175.36 113.493ZM100.693 157.884V138.88H91.9573C91.3084 138.882 90.6702 138.719 90.1057 138.408C89.5412 138.097 89.0698 137.649 88.7382 137.107C88.4065 136.565 88.226 135.949 88.2144 135.318C88.2028 134.688 88.3605 134.066 88.672 133.513L108.608 97.2459C110.4 93.9819 115.627 95.2149 115.627 98.9867V120.747H124.139C124.792 120.75 125.433 120.921 125.997 121.241C126.562 121.561 127.03 122.019 127.355 122.569C127.68 123.12 127.851 123.744 127.85 124.379C127.849 125.014 127.676 125.637 127.349 126.187L107.637 159.697C105.771 162.889 100.693 161.583 100.693 157.884V157.884Z" fill="white"/>
<g style="mix-blend-mode:overlay" opacity="0.5" filter="url(#filter0_f_48_2)">
<path d="M182.634 99.0793C182.615 99.0604 182.615 99.0294 182.634 99.0106V99.0106C182.653 98.9917 182.653 98.9607 182.634 98.9418L160.232 77.0522C159.24 76.0936 157.9 75.556 156.504 75.556C155.109 75.556 153.769 76.0936 152.777 77.0522C150.737 79.0453 150.737 82.3442 152.777 84.3373V84.3373C157.944 89.3866 155.652 99.0875 153.408 105.955C152.618 108.372 152.363 111.034 152.777 113.821C153.902 121.381 160.514 127.498 168.25 128.323V128.323C172.559 128.771 177.183 131.757 177.183 136.088V176.5C177.183 180.28 174.018 183.373 170.149 183.373C166.281 183.373 163.116 180.28 163.116 176.5V145.573C163.116 138.013 156.786 131.828 149.049 131.828V131.828C145.164 131.828 142.015 128.679 142.015 124.794V83.7188C142.015 76.1588 135.685 69.9733 127.948 69.9733H85.7471C78.0102 69.9733 71.68 76.1588 71.68 83.7188V186.809C71.68 190.589 74.8451 193.682 78.7135 193.682H134.982C138.85 193.682 142.015 190.589 142.015 186.809V147.412C142.015 144.499 144.377 142.137 147.29 142.137V142.137C150.204 142.137 152.566 144.499 152.566 147.412V175.538C152.566 184.542 159.177 192.72 168.321 193.613C170.773 193.864 173.252 193.608 175.596 192.862C177.94 192.116 180.098 190.896 181.928 189.282C183.759 187.668 185.222 185.697 186.222 183.495C187.222 181.292 187.737 178.91 187.733 176.5V111.21C187.733 106.485 185.778 102.17 182.634 99.0793ZM170.149 118.082C166.281 118.082 163.116 114.99 163.116 111.21C163.116 107.43 166.281 104.337 170.149 104.337C174.018 104.337 177.183 107.43 177.183 111.21C177.183 114.99 174.018 118.082 170.149 118.082ZM-nan -nanL99.8141 160.143V150.366C99.8141 145.821 96.1298 142.137 91.5849 142.137V142.137C90.9736 142.138 90.3724 141.984 89.8407 141.69C89.3089 141.395 88.8649 140.97 88.5525 140.457C88.2401 139.943 88.07 139.359 88.0591 138.762C88.0481 138.165 88.1967 137.575 88.4901 137.051L107.27 102.687C108.958 99.5947 113.881 100.763 113.881 104.337V116.937C113.881 121.365 117.471 124.955 121.899 124.955V124.955C122.515 124.959 123.119 125.12 123.65 125.423C124.182 125.726 124.623 126.16 124.929 126.682C125.235 127.204 125.396 127.795 125.395 128.397C125.394 128.998 125.232 129.589 124.924 130.11L106.355 161.862C104.597 164.886 99.8141 163.648 99.8141 160.143L-nan -nanL-nan -nanZ" fill="#033623"/>
</g>
<defs>
<filter id="filter0_f_48_2" x="59.12" y="42.0533" width="138.613" height="194.933" filterUnits="userSpaceOnUse" color-interpolation-filters="sRGB">
<feFlood flood-opacity="0" result="BackgroundImageFix"/>
<feBlend mode="normal" in="SourceGraphic" in2="BackgroundImageFix" result="shape"/>
<feGaussianBlur stdDeviation="5" result="effect1_foregroundBlur_48_2"/>
</filter>
<linearGradient id="paint0_linear_48_2" x1="128" y1="0" x2="128" y2="256" gradientUnits="userSpaceOnUse">
<stop stop-color="#0085FF"/>
<stop offset="1" stop-color="#001BD2" stop-opacity="0.94"/>
</linearGradient>
</defs>
</svg>
