<svg width="150" height="150" viewBox="0 0 150 150" fill="none" xmlns="http://www.w3.org/2000/svg">
    <rect width="150" height="150" rx="24" fill="url(#paint0_linear_48_2)" />
    <path
        d="M110.494 54.7275L110.538 54.685L96.5813 41.1275C95.9638 40.5347 95.1306 40.2023 94.2625 40.2023C93.3944 40.2023 92.5612 40.5347 91.9437 41.1275C90.675 42.36 90.675 44.4 91.9437 45.6325L98.8563 52.3475C94.2625 54.0475 91.1562 58.595 91.9437 63.865C92.6437 68.54 96.7562 72.3225 101.569 72.8325C103.625 73.045 105.419 72.705 107.125 71.9825V102.625C107.125 104.963 105.156 106.875 102.75 106.875C100.344 106.875 98.375 104.963 98.375 102.625V83.5C98.375 78.825 94.4375 75 89.625 75H85.25V45.25C85.25 40.575 81.3125 36.75 76.5 36.75H50.25C45.4375 36.75 41.5 40.575 41.5 45.25V109C41.5 111.338 43.4687 113.25 45.875 113.25H80.875C83.2813 113.25 85.25 111.338 85.25 109V81.375H91.8125V102.03C91.8125 107.598 95.925 112.655 101.612 113.208C103.138 113.362 104.68 113.204 106.138 112.743C107.596 112.281 108.938 111.527 110.077 110.529C111.215 109.531 112.125 108.312 112.747 106.95C113.369 105.588 113.69 104.115 113.688 102.625V62.25C113.688 59.3175 112.463 56.64 110.494 54.7275ZM102.75 66.5C100.344 66.5 98.375 64.5875 98.375 62.25C98.375 59.9125 100.344 58 102.75 58C105.156 58 107.125 59.9125 107.125 62.25C107.125 64.5875 105.156 66.5 102.75 66.5ZM59 92.51V81.375H53.8812C53.501 81.376 53.1271 81.2807 52.7963 81.0985C52.4655 80.9163 52.1894 80.6535 51.995 80.336C51.8007 80.0186 51.6949 79.6573 51.6881 79.288C51.6813 78.9187 51.7737 78.554 51.9562 78.23L63.6375 56.98C64.6875 55.0675 67.75 55.79 67.75 58V70.75H72.7375C73.1204 70.7522 73.4959 70.8521 73.8266 71.0395C74.1573 71.2269 74.4316 71.4954 74.6221 71.818C74.8125 72.1407 74.9124 72.5063 74.9118 72.8782C74.9113 73.2501 74.8102 73.6154 74.6187 73.9375L63.0688 93.5725C61.975 95.4425 59 94.6775 59 92.51V92.51Z"
        fill="white" />
    <g style="mix-blend-mode:overlay" opacity="0.5" filter="url(#filter0_f_48_2)">
        <path
            d="M107.012 58.0543C107.001 58.0432 107.001 58.025 107.012 58.014V58.014C107.023 58.003 107.023 57.9848 107.012 57.9737L93.8861 45.1478C93.3044 44.5861 92.5196 44.2711 91.7018 44.2711C90.884 44.2711 90.0992 44.5861 89.5176 45.1478C88.3224 46.3156 88.3224 48.2486 89.5176 49.4164V49.4164C92.5454 52.375 91.2021 58.0591 89.8874 62.083C89.4247 63.4992 89.275 65.0591 89.5176 66.6921C90.177 71.1218 94.0509 74.7058 98.5842 75.1891V75.1891C101.109 75.4515 103.818 77.2011 103.818 79.739V103.418C103.818 105.633 101.964 107.445 99.697 107.445C97.4303 107.445 95.5757 105.633 95.5757 103.418V85.2968C95.5757 80.8671 91.8667 77.2428 87.3333 77.2428V77.2428C85.0572 77.2428 83.2121 75.3977 83.2121 73.1216V49.054C83.2121 44.6243 79.503 41 74.9697 41H50.2424C45.7091 41 42 44.6243 42 49.054V109.459C42 111.674 43.8545 113.486 46.1212 113.486H79.0909C81.3576 113.486 83.2121 111.674 83.2121 109.459V86.3742C83.2121 84.6672 84.596 83.2833 86.303 83.2833V83.2833C88.0101 83.2833 89.3939 84.6672 89.3939 86.3742V102.854C89.3939 108.13 93.2679 112.922 98.6254 113.445C100.062 113.592 101.515 113.442 102.888 113.005C104.262 112.568 105.526 111.853 106.599 110.908C107.671 109.962 108.528 108.807 109.114 107.516C109.7 106.226 110.002 104.83 110 103.418V65.1619C110 62.3936 108.855 59.8651 107.012 58.0543ZM99.697 69.1889C97.4303 69.1889 95.5757 67.3767 95.5757 65.1619C95.5757 62.9471 97.4303 61.1349 99.697 61.1349C101.964 61.1349 103.818 62.9471 103.818 65.1619C103.818 67.3767 101.964 69.1889 99.697 69.1889ZM-nan -nanL58.4848 93.834V88.1051C58.4848 85.4421 56.326 83.2833 53.663 83.2833V83.2833C53.3048 83.2843 52.9526 83.194 52.641 83.0213C52.3294 82.8487 52.0693 82.5997 51.8862 82.2989C51.7032 81.998 51.6035 81.6558 51.5971 81.3058C51.5907 80.9559 51.6778 80.6104 51.8497 80.3033L62.8533 60.1684C63.8424 58.3563 66.7273 59.0409 66.7273 61.1349V68.5177C66.7273 71.1124 68.8307 73.2159 71.4255 73.2159V73.2159C71.7861 73.218 72.1399 73.3126 72.4514 73.4901C72.7629 73.6677 73.0213 73.9221 73.2007 74.2278C73.3801 74.5336 73.4742 74.88 73.4737 75.2324C73.4731 75.5848 73.3779 75.9309 73.1976 76.2361L62.3176 94.8408C61.2873 96.6126 58.4848 95.8878 58.4848 93.834L-nan -nanL-nan -nanZ"
            fill="#033623" />
    </g>
    <defs>
        <filter id="filter0_f_48_2" x="30.5" y="20.5" width="89.5" height="122.5" filterUnits="userSpaceOnUse"
            color-interpolation-filters="sRGB">
            <feFlood flood-opacity="0" result="BackgroundImageFix" />
            <feBlend mode="normal" in="SourceGraphic" in2="BackgroundImageFix" result="shape" />
            <feGaussianBlur stdDeviation="5" result="effect1_foregroundBlur_48_2" />
        </filter>
        <linearGradient id="paint0_linear_48_2" x1="75" y1="0" x2="75" y2="150" gradientUnits="userSpaceOnUse">
            <stop stop-color="#0085FF" />
            <stop offset="1" stop-color="#001BD2" stop-opacity="0.94" />
        </linearGradient>
    </defs>
</svg>